/* XPM */
static const char *sprite_151[] = {
/* columns rows colors chars-per-pixel */
"32 32 8 1 ",
"  c #4F342F",
". c #586335",
"X c #8C5B3E",
"o c #7F8E44",
"O c #ADB834",
"+ c #C68556",
"@ c #D6A851",
"# c None",
/* pixels */
"################################",
"################################",
"################################",
"################################",
"################################",
"################################",
"################################",
"################################",
"#########.######################",
"########.O.#####################",
"########.oO.       #############",
"##########  XXXXXXX  ###########",
"#######   X+++++++++X   #.######",
"###### + X++@@@@@@@++X +.O.#####",
"######.X X+@@+@@@+@@+X X.#######",
"#######. X+@@@+++@@++X .########",
"######## X++@@+++@@@+X #########",
"######## X+@@+@@@+@@+X #########",
"######.# X++@@@@@@@++X #########",
"#####.O. XX+++++++++XX #########",
"#######.  XXXXXXXXXXX  #########",
"######## X           X #.#######",
"####### +XX XXXXXX XXX+ O.######",
"####### XXXXXXXX.XXXXXX ########",
"###### +XXX.X X.O.X XXX+ #######",
"##### +XXX.O...Oo....XXX+.######",
"#####.XX..o##########..X.O.#####",
"####.O..###############.O#######",
"################################",
"################################",
"################################",
"################################"
};
