/* XPM */
static const char *sprite_163[] = {
/* columns rows colors chars-per-pixel */
"32 32 4 1 ",
"  c #4F342F",
". c #8C5B3E",
"X c #C68556",
"o c None",
/* pixels */
"oooooooooooooooooooooooooooooooo",
"o....................ooooooooooo",
"o.XXXXXXXXXXXXXXXXXX.ooooooooooo",
"o.X................X.ooooooooooo",
"o.X.XXXXXXXX..XXXX.X.ooooooooooo",
"o.X.XXXXXX..XXXXXX.X.ooooooooooo",
"o.X.XXXX..XXXXXXXX.X.ooooooooooo",
"o.X.XX..XXX....................o",
"o.X...XXXXX.XXXXXXXXXXXXXXXXXX.o",
"o.X.XXXXXXX.X................X.o",
"o.X.XXXXXX..X.XXXX..XXXXXXXX.X.o",
"o.X.XXXX..X.X.XXXXXX..XXXXXX.X.o",
"o.X.XX..XXX.X.XXXXXXXX..XXXX.X.o",
"o X.........X...XXXXXXXX..XX.X.o",
"o XXXXXXXXX.X.XX..XXXXXXXX...X.o",
"o          .X.XXXX..XXXXXXXX.X.o",
"o ..........X.XXXXXX..XXXXXX.X.o",
"o .        .X.XXXXXXXX..XXXX.X.o",
"o . ..  ... X.XXXXXXXXXX..XX.X.o",
"o . ....    X................X o",
"o .    .... XXXXXXXXXXXXXXXXXX o",
"o . ...                        o",
"o . ....... .................. o",
"o .         .                . o",
"o ......... . ..........  .. . o",
"o           . ......    .... . o",
"ooooooooooo . ..    .....    . o",
"ooooooooooo .   .....    ... . o",
"ooooooooooo . ....   ....... . o",
"ooooooooooo .                . o",
"ooooooooooo .................. o",
"ooooooooooo                    o"
};
