/* XPM */
static const char *sprite_071[] = {
/* columns rows colors chars-per-pixel */
"32 32 4 1 ",
"  c #4F342F",
". c #8C5B3E",
"X c #C68556",
"o c None",
/* pixels */
"oooooooooooooooooooooooooooooooo",
"oooooooooooooooooooooooooooooooo",
"oooooooooooooooooooooooooooooooo",
"oooooooooooooooooooooooooooooooo",
"oooooooooooooooooooooooooooooooo",
"oooooooooooooooooooooooooooooooo",
"oooooooooooooooooooooooooooooooo",
"oooooooooooooooo........oooooooo",
"oooooooooooooo  XXXXXXX.  oooooo",
"ooooooooooooo .XX......XX. ooooo",
"oooooooooooo .X..XXXX....X. oooo",
"oooooooooooo X.XXXX..XXXX.X oooo",
"ooooooooooo .X.XXX.XXXXXX.X. ooo",
"ooooooooooo .X.X..XXXXX...X. ooo",
"ooooooooooo .X..XXXXXX.XX.X. ooo",
"ooooooooooo .X.XXXXXX.XXX.X. ooo",
"ooooooooooo  X.XXXX..XXXX.X  ooo",
"ooooooooooo  .X....XXXX..X.  ooo",
"ooooooooooo . .XX......XX. . ooo",
"ooooooooooo ..  .XXXXXX.  .. ooo",
"ooooooooooo  ...        ...  ooo",
"ooooooooooo . ............ . ooo",
"ooooooooooo ..  ..XXXXX.  .. ooo",
"ooooooooooo ....  ..... .... ooo",
"ooooooooooo  .....XXXXX....  ooo",
"ooooooooooo . ....XXXX.... . ooo",
"oooooooooooo . ..XXXXXX.. . oooo",
"oooooooooooo ..  .XXXX.  .. oooo",
"ooooooooooooo ...      ... ooooo",
"oooooooooooooo  ........  oooooo",
"oooooooooooooooo        oooooooo",
"oooooooooooooooooooooooooooooooo"
};
