/* XPM */
static const char *sprite_229[] = {
/* columns rows colors chars-per-pixel */
"32 32 5 1 ",
"  c #586335",
". c #7F8E44",
"X c #ADB834",
"o c #42BFE8",
"O c #73EFE8",
/* pixels */
"oooooooooooooooooooooooooooooooo",
"oooooooooooooooooooooooooooooooo",
"oooooooooooooooooooooooooooooooo",
"oooooooooooooooooooooooooooooooo",
"ooooXooooooooooooooooooooooooooo",
"oooo.oXoOooooooooooooooooooooooo",
"oooo ..ooOoooooooooooooooooooooo",
"oooO   Ooooooooooooooooooooooooo",
"ooooOOOooooooooooooooooooooooooo",
"oooooooooooooooooooooooooooooooo",
"ooooOooooooooooooooooooooXoooooo",
"ooooooooooooooooooooooooo.oooooo",
"ooooooooooooooooooooooooo.Xooooo",
"ooooooooooooooooooooooooO  Ooooo",
"ooooooooooooooooooooooOooOOooooo",
"oooooooooooooooooooooooooooooooo",
"oooooooooooooooooooooooooooooooo",
"oooooooooooooooooooooooooooooooo",
"oooooooooooooooooooooooooooooooo",
"oooooooooooooooooooooooooooooooo",
"oooooooooooooooooooooooooooooooo",
"oooooooooooooooooooooooooooooooo",
"oooooooooooooooooooooooooooooooo",
"oooooooooooooooooooooXoooooooooo",
"ooooooooooooooooooooo.XOOooooooo",
"ooooooooooooooooooooo..ooOoooooo",
"oooooooooooooooOooooo. .ooOooooo",
"ooooooooooooooooooOoO   Oooooooo",
"ooooooooooooooooooOooOOOoooooooo",
"oooooooooooooooooooOoooooooooooo",
"oooooooooooooooooooooooooooooooo",
"oooooooooooooooooooooooooooooooo"
};
