/* XPM */
static const char *player_axe1[] = {
/* columns rows colors chars-per-pixel */
"20 20 7 1 ",
"  c #33323D",
". c #944B4B",
"X c #AE7764",
"o c #7B7BAB",
"O c #94A2BD",
"+ c white",
"@ c None",
/* pixels */
"@@@@@@@@@@@@@@@@@@@@",
"@@@@@@@    @@@@@@@@@",
"@@@@@@ ...X @@@@@@@@",
"@@@@@....   @@@@@@@@",
"@@@@@..       @@@@@@",
"@@@@......X.X @@@@@@",
"@@@@.@@@     @@@@@@@",
"@@@@@@@@@ o @@@@@@@@",
"@@@@@@@@ oOO @@@@@@@",
"@@@@@@@@ oOO @@@@@@@",
"@@@@@@@@ oOOO@@@@@@@",
"@@@@@@@@ oOOOOOO@@@@",
"@@@@@@@@ OOOOOO@@@@@",
"@@@@@@@@ O+OOO@@@@@@",
"@@@@@@@@ o++O@@@@O@@",
"@@@@@@@@ OO+++@@O@@@",
"@@@@@@@@ o+OOOOOO@@@",
"@@@@@@@@ oO++OOO@@@@",
"@@@@@@@@@ OOOOO @@@@",
"@@@@@@@@@@     @@@@@"
};
