/* XPM */
static const char *player_axe0[] = {
/* columns rows colors chars-per-pixel */
"20 20 7 1 ",
"  c #33323D",
". c #944B4B",
"X c #AE7764",
"o c #7B7BAB",
"O c #94A2BD",
"+ c white",
"@ c None",
/* pixels */
"@@@@@@@@@@@@@@@@@@@@",
"@@@@@@@@@@@@@@@@@@@@",
"@@@@@@@@@@@@@@@@@@@@",
"@@@@@@@@@@@@@@O@@@@@",
"@@@@@@@@@@@@@@@OO@@@",
"@@@@@@@@@@@O@@@@OO @",
"@@@@@@@@@@@OO@@@OOO ",
"@@@@  @@@@@OOO@+OOO ",
"@@@@ X @  OOOOO+O+O ",
"@@   .  OOOOOO++O+O ",
"@ X  X oOOOOO++O+OO ",
"@ .  .  ooooOOoOoo @",
"@ .. . @          @@",
"@ .. .@@@@@@@@@@@@@@",
"@@ ...@@@@@@@@@@@@@@",
"@@@...@@@@@@@@@@@@@@",
"@@@@@..@@@@@@@@@@@@@",
"@@@@@@@@@@@@@@@@@@@@",
"@@@@@@@@@@@@@@@@@@@@",
"@@@@@@@@@@@@@@@@@@@@"
};
