/* XPM */
static const char *player_axe2[] = {
/* columns rows colors chars-per-pixel */
"20 20 7 1 ",
"  c #33323D",
". c #944B4B",
"X c #AE7764",
"o c #7B7BAB",
"O c #94A2BD",
"+ c white",
"@ c None",
/* pixels */
"@@@@@@@@@@@@@@@@@@@@",
"@@@@@@@@@@@@@@@@@@@@",
"@@@@@@@@@@@@@@@@@@@@",
"@@@@@@@@@@@@@@@@@@@@",
"@@@@@@@@@@@@@@..@@@@",
"@@@@@@@@@@@@@@@...@@",
"@@@@@@@@@@@@@@@... @",
"@@@@@@@@@@@@@@@. .. ",
"@@@          @ . .. ",
"@@ ooOoOOoooo  .  . ",
"@ OO+O++OOOOOo X  X ",
"@ O+O++OOOOOO  .   @",
"@ O+O+OOOOO  @ X @@@",
"@ OOO+@OOO@@@@@  @@@",
"@ OOO@@@OO@@@@@@@@@@",
"@@ OO@@@@O@@@@@@@@@@",
"@@@@OO@@@@@@@@@@@@@@",
"@@@@@@O@@@@@@@@@@@@@",
"@@@@@@@@@@@@@@@@@@@@",
"@@@@@@@@@@@@@@@@@@@@"
};
