/* XPM */
static const char *coin_0056[] = {
/* columns rows colors chars-per-pixel */
"16 16 5 1 ",
"  c #14182E",
". c #CF752B",
"X c #F0B541",
"o c #FFEE83",
"O c None",
/* pixels */
"OOOOOOOOOOOOOOOO",
"OOOOOOOOOOOOOOOO",
"OOOOOOO  OOOOOOO",
"OOOOOO oo OOOOOO",
"OOOOO XooX OOOOO",
"OOOOO XXoo OOOOO",
"OOOOO XXoX OOOOO",
"OOOO XXXooo OOOO",
"OOOO XXX.XX OOOO",
"OOOO XXX... OOOO",
"OOOO XXX.XX OOOO",
"OOOOO XX.. OOOOO",
"OOOOO XX.X OOOOO",
"OOOOO X... OOOOO",
"OOOOOO .. OOOOOO",
"OOOOOOO  OOOOOOO"
};
