/* XPM */
static const char *coin_0065[] = {
/* columns rows colors chars-per-pixel */
"16 16 6 1 ",
"  c #14182E",
". c #CF752B",
"X c #F0B541",
"o c #FFEE83",
"O c #F5FFE8",
"+ c None",
/* pixels */
"++++++++++++++++",
"++++++++++++++++",
"++++++    ++++++",
"++++  oooo  ++++",
"+++ oXXXXXXo +++",
"++ oXXXXXXXXo ++",
"++ XXXXXXXXoO ++",
"+ oXXXXXXXoOOO +",
"+ XXXXXXXXoOOO +",
"+ XXXXXXXXoOOO +",
"+ .XXXXXXoOOOO +",
"++ XXXXXXoOOO ++",
"++ .XXXXoOOOO ++",
"+++ ..XXoOOO +++",
"++++  .XOO  ++++",
"++++++    ++++++"
};
