/* XPM */
static const char *coin_0061[] = {
/* columns rows colors chars-per-pixel */
"16 16 6 1 ",
"  c #14182E",
". c #CF752B",
"X c #F0B541",
"o c #FFEE83",
"O c #F5FFE8",
"+ c None",
/* pixels */
"++++++++++++++++",
"++++++++++++++++",
"++++++    ++++++",
"++++  OOoo  ++++",
"+++ OOOOoXXo +++",
"++ OOOOoXXXXo ++",
"++ OOOoXXXXXX ++",
"+ OOOoXXXXXXXo +",
"+ OOoXXXXXXXXX +",
"+ OOoXXXXXXXXX +",
"+ OoXXXXXXXXX. +",
"++ XXXXXXXXXX ++",
"++ .XXXXXXXX. ++",
"+++ ..XXXX.. +++",
"++++  ....  ++++",
"++++++    ++++++"
};
