/* XPM */
static char *b20b23804afc4115803cbc8fc081f636UD81ostQQEnOKq3f[] = {
/* columns rows colors chars-per-pixel */
"32 32 5 1 ",
"  c None",
". c #14182E",
"X c #E64539",
"o c #AD2F45",
"O c #FF8933",
/* pixels */
"                                ",
"                                ",
"                                ",
"                                ",
"                                ",
"                                ",
"                                ",
"                                ",
"                                ",
"           ....  ....           ",
"          .OOXO..OOXO.          ",
"         .OOXXXOOOXXXO.         ",
"         .XXXXXXOXXXXX.         ",
"         .XXXXXXXXXXXX.         ",
"         .XXXXXXXXXXXX.         ",
"         .ooXXXXXXXXXo.         ",
"          .ooXXXXXXXo.          ",
"           .ooXXXXXo.           ",
"            .ooXXXo.            ",
"             .ooXo.             ",
"              .oo.              ",
"               ..               ",
"                                ",
"                                ",
"                                ",
"                                ",
"                                ",
"                                ",
"                                ",
"                                ",
"                                ",
"                                "
};
