/* XPM */
static const char *hud1[] = {
/* columns rows colors chars-per-pixel */
"32 32 60 1 ",
"  c #100F13",
". c #3C201A",
"X c #3E2A1D",
"o c #3F2C1D",
"O c #3F2D1E",
"+ c #3F2E1E",
"@ c #201E26",
"# c #3F3420",
"$ c #4A1D20",
"% c #4C1E20",
"& c #4E2822",
"* c #733332",
"= c #743332",
"- c #743432",
"; c #763A34",
": c #794536",
"> c #7A4637",
", c #7A4A37",
"< c #7B4D39",
"1 c #7C5139",
"2 c #7C513A",
"3 c #7D563B",
"4 c #7D573B",
"5 c #7E573B",
"6 c #7F5B3C",
"7 c #7F5C3C",
"8 c #7F5E3D",
"9 c #7F5F3D",
"0 c #7E6640",
"q c #7E6941",
"w c #7E6C42",
"e c #7E7144",
"r c #BB7B57",
"t c #BC7F58",
"y c #EC7567",
"u c #EE7868",
"i c #BE9860",
"p c #BE9A60",
"a c #F1856C",
"s c #F1876C",
"d c #FAA674",
"f c #FAAA75",
"g c #FAAB76",
"h c #FAAC76",
"j c #FCAF76",
"k c #FABB7B",
"l c #FEB879",
"z c #FCC37D",
"x c #FDC57E",
"c c #FDC77E",
"v c #FEC77E",
"b c #FCCA80",
"n c #FDCD80",
"m c #FDCF81",
"M c #FDD382",
"N c #FDD784",
"B c #FDDA85",
"V c #FCEA8B",
"C c #FCEB8B",
"Z c None",
/* pixels */
"@@@@@@@@@@@@@@@@@@@@@@@@@@@@@@@@",
"@@@@@@@@@@@@@@@@@@@@@@@@@@@@@@@@",
"@@@@@@@@@@@@@@@@@@@@@@@@@@@@@@@@",
"@@@@@@@@@@@@@@@@@@@@@@@@@@@@@@@@",
"@@@@@@@@@@@@@@@@@@@@@@@@@@@@@@@@",
"@@@@@@@@@@@@@@@@@@@@@@@@@@@@@@@@",
"@@@@@@@@@@@@@@@@@@@@@@@@@@@@@@@@",
"@@@@@@@@@@@@@@@@@@@@@@@@@@@@@@@@",
"@@@@@@@@@@@@@@@@@@@@@@@@@@@@@@@@",
"@@@@@@@@@@@@@@@@@@@@@@@@@@@@@@@@",
"@@@@@@@@@@@@@@@@@@@@@@@@@@@@@@@@",
"@@@@@@@@@@@@@@@@@@@@@@@@@@@@@@@@",
"@@@@@@@@@@@@@@@@@@@@@@@@@@@@@@@@",
"@@@@@@@@@@@@@@@@@@@@@@@@@@@@@@@@",
"@@@@@@@@@@@@@@@@@@@@@@@@@@@@@@@@",
"@@@@@@@@@@@@@@@@@@@@@@@@@@@@@@@@",
"@@@@@@@@@@@@@@@@@@@@@@@@@@@@@@@@",
"@@@@@@@@@@@@@@@@@@@@@@@@@@@@@@@@",
"@@@@@@@@@@@@@@@@@@@@@@@@@@@@@@@@",
"@@@@@@@@@@@@@@@@@@@@@@@@@@@@@@@@",
"@@@@@@@@@@@@@@@@@@@@@@@@@@@@@@@@",
"@@@@@@@@@@@@@@@@@@@@@@@@@@@@@@@@",
"@@@@@@@@@@@@@@@@@@@@@@@@@@@@@@@@",
"@@@@@@@@@@@@@@@@@@@@@@@@@@@@@@@@",
"@@@@@@@@@@@@@@@@@@@@@@@@@@@@@@@@",
"@@@@@@@@@@@@@@@@@@@@@@@@@@@@@@@@",
"@@@@@@@@@@@@@@@@@@@@@@@@@@@@@@@@",
"@@@@@@@@@@@@@@@@@@@@@@@@@@@@@@@@",
"                                ",
"Zoxp8p4fjlmfxdhMCxbmzNCBk6t8rsoZ",
"=u#-s:yX<:41q4,88180w8weoy:s-.u=",
"$=Z%;&*ZZZZZZZZZZZZZZZZZZ*&;%Z=$"
};
