/* XPM */
static const char *hud2[] = {
/* columns rows colors chars-per-pixel */
"32 32 103 2 ",
"   c #080709",
".  c #100F13",
"X  c #3B1E1A",
"o  c #3C201A",
"O  c #3E2A1D",
"+  c #3F2C1D",
"@  c #3F2C1E",
"#  c #3F2D1E",
"$  c #3F2E1E",
"%  c #3F321F",
"&  c #201E26",
"*  c #3F3420",
"=  c #4A1D20",
"-  c #4C1E20",
";  c #4E2622",
":  c #4E2822",
">  c #733332",
",  c #743332",
"<  c #743432",
"1  c #763A33",
"2  c #763A34",
"3  c #784135",
"4  c #794436",
"5  c #794536",
"6  c #794737",
"7  c #7A4637",
"8  c #7A4A37",
"9  c #7B4B38",
"0  c #7B4D38",
"q  c #7B4D39",
"w  c #7C5139",
"e  c #7C513A",
"r  c #7C523A",
"t  c #7D523A",
"y  c #7E553B",
"u  c #7D563B",
"i  c #7D573B",
"p  c #7E573B",
"a  c #7D583B",
"s  c #7F5B3C",
"d  c #7F5C3C",
"f  c #7F5E3D",
"g  c #7F5F3D",
"h  c #7F603E",
"j  c #7E643F",
"k  c #7F643F",
"l  c #7F6540",
"z  c #7E6640",
"x  c #7F6841",
"c  c #7E6941",
"v  c #7E6A41",
"b  c #7E6C42",
"n  c #7E7043",
"m  c #7E7144",
"M  c #7E7345",
"N  c #BB7B57",
"B  c #BC7F58",
"V  c #EC7567",
"C  c #EE7868",
"Z  c #BD8359",
"A  c #BB865A",
"S  c #BE9860",
"D  c #BE9A60",
"F  c #BEA163",
"G  c #BDAB66",
"H  c #F1856C",
"J  c #F1866C",
"K  c #F1876C",
"L  c #F69570",
"P  c #F69A71",
"I  c #F8A073",
"U  c #FAA674",
"Y  c #FAAA75",
"T  c #FAAB76",
"R  c #FAAC76",
"E  c #FBAD76",
"W  c #FAAE77",
"Q  c #FCAF76",
"!  c #FCB278",
"~  c #FABB7B",
"^  c #FEB879",
"/  c #FDBA7A",
"(  c #FCBD7B",
")  c #FDBF7B",
"_  c #FCBF7C",
"`  c #FDC27D",
"'  c #FCC37D",
"]  c #FDC57E",
"[  c #FDC77E",
"{  c #FEC77E",
"}  c #FDC87F",
"|  c #FCCA80",
" . c #FDCD80",
".. c #FDCF81",
"X. c #FDD182",
"o. c #FDD282",
"O. c #FDD382",
"+. c #FDD784",
"@. c #FDDA85",
"#. c #FCDF86",
"$. c #FCEA8B",
"%. c #FCEB8B",
"&. c None",
/* pixels */
"= , &.. & & & & & & & & & & & & & & & & & & & & & & & & & & & & ",
", C @ . & & & & & & & & & & & & & & & & & & & & & & & & & & & & ",
"&.@ } . & & & & & & & & & & & & & & & & & & & & & & & & & & & & ",
"- < A . & & & & & & & & & & & & & & & & & & & & & & & & & & & & ",
"1 J n . & & & & & & & & & & & & & & & & & & & & & & & & & & & & ",
"; 4 F . & & & & & & & & & & & & & & & & & & & & & & & & & & & & ",
"> V t . & & & & & & & & & & & & & & & & & & & & & & & & & & & & ",
"&.% P . & & & & & & & & & & & & & & & & & & & & & & & & & & & & ",
"&.l X.. & & & & & & & & & & & & & & & & & & & & & & & & & & & & ",
"&.y U . & & & & & & & & & & & & & & & & & & & & & & & & & & & & ",
"&.a ( . & & & & & & & & & & & & & & & & & & & & & & & & & & & & ",
"&.t X.. & & & & & & & & & & & & & & & & & & & & & & & & & & & & ",
"&.0 / . & & & & & & & & & & & & & & & & & & & & & & & & & & & & ",
"&.M %.. & & & & & & & & & & & & & & & & & & & & & & & & & & & & ",
"&.j #.. & & & & & & & & & & & & & & & & & & & & & & & & & & & & ",
"&.3 E . & & & & & & & & & & & & & & & & & & & & & & & & & & & & ",
"&.y E . & & & & & & & & & & & & & & & & & & & & & & & & & & & & ",
"&.j ~ . & & & & & & & & & & & & & & & & & & & & & & & & & & & & ",
"&.x ` . & & & & & & & & & & & & & & & & & & & & & & & & & & & & ",
"&.t ! . & & & & & & & & & & & & & & & & & & & & & & & & & & & & ",
"&.9 ` . & & & & & & & & & & & & & & & & & & & & & & & & & & & & ",
"&.x _ . & & & & & & & & & & & & & & & & & & & & & & & & & & & & ",
"&.h ( . & & & & & & & & & & & & & & & & & & & & & & & & & & & & ",
"&.4 I . & & & & & & & & & & & & & & & & & & & & & & & & & & & & ",
"&.X L . & & & & & & & & & & & & & & & & & & & & & & & & & & & & ",
"> V h . & & & & & & & & & & & & & & & & & & & & & & & & & & & & ",
"; 4 Z . & & & & & & & & & & & & & & & & & & & & & & & & & & & & ",
"1 J M . & & & & & & & & & & & & & & & & & & & & & & & & & & & & ",
"- < G   . . . . . . . . . . . . . . . . . . . . . . . . . . . . ",
"&.@ ] D f D y Y Q / ..Y ] U E X.%.] | ..` +.%.@.~ s B f N J @ &.",
", C * < J 4 V O 0 4 y t x y 8 f f t f l b f b M @ V 4 J < o C , ",
"= , &.- 2 : > &.&.&.&.&.&.&.&.&.&.&.&.&.&.&.&.&.&.> : 2 - &., = "
};
