/* XPM */
static const char *hud3[] = {
/* columns rows colors chars-per-pixel */
"32 32 104 2 ",
"   c #080709",
".  c #100F13",
"X  c #3C201A",
"o  c #3C211B",
"O  c #3E2A1D",
"+  c #3F2C1D",
"@  c #3F2C1E",
"#  c #3F2D1E",
"$  c #3F2E1E",
"%  c #201E26",
"&  c #3F3220",
"*  c #3F3420",
"=  c #4A1D20",
"-  c #4C1E20",
";  c #4E2622",
":  c #4E2822",
">  c #733332",
",  c #743332",
"<  c #743432",
"1  c #763A33",
"2  c #763A34",
"3  c #794436",
"4  c #794536",
"5  c #7A4637",
"6  c #7A4737",
"7  c #7A4A37",
"8  c #7B4D39",
"9  c #7C5039",
"0  c #7C5139",
"q  c #7C513A",
"w  c #7D533A",
"e  c #7D563B",
"r  c #7C573B",
"t  c #7D573B",
"y  c #7E563B",
"u  c #7E573B",
"i  c #7E583B",
"p  c #7D5A3C",
"a  c #7F5B3C",
"s  c #7F5C3C",
"d  c #7F5E3D",
"f  c #7F5F3D",
"g  c #7D5E3E",
"h  c #7F603E",
"j  c #7F633F",
"k  c #7E643F",
"l  c #7E6640",
"z  c #7F6740",
"x  c #7E6841",
"c  c #7E6941",
"v  c #7E6B42",
"b  c #7E6C42",
"n  c #7E7144",
"m  c #7E7244",
"M  c #7E7445",
"N  c #BB7B57",
"B  c #BC7F58",
"V  c #EC7567",
"C  c #EE7868",
"Z  c #BD8F5D",
"A  c #BE905D",
"S  c #BE935E",
"D  c #BE9860",
"F  c #BE9A60",
"G  c #BDA364",
"H  c #F1856C",
"J  c #F1866C",
"K  c #F1876C",
"L  c #F9A373",
"P  c #F9A674",
"I  c #FAA674",
"U  c #FAA774",
"Y  c #FAAA75",
"T  c #FAAB76",
"R  c #FAAC76",
"E  c #FCAF76",
"W  c #FAB078",
"Q  c #FBB278",
"!  c #FAB77A",
"~  c #FABB7B",
"^  c #FEB879",
"/  c #FEB979",
"(  c #FDC27D",
")  c #FCC37D",
"_  c #FDC37D",
"`  c #FDC57E",
"'  c #FDC77E",
"]  c #FEC77E",
"[  c #FCCA80",
"{  c #FDCD80",
"}  c #FECC80",
"|  c #FDCF81",
" . c #FCD082",
".. c #FDD082",
"X. c #FDD382",
"o. c #FDD483",
"O. c #FDD784",
"+. c #FDD884",
"@. c #FDDA85",
"#. c #FCE88A",
"$. c #FCEA8B",
"%. c #FCEB8B",
"&. c #FCED8C",
"*. c None",
/* pixels */
"% % % % % % % % % % % % % % % % % % % % % % % % % % % % . *., = ",
"% % % % % % % % % % % % % % % % % % % % % % % % % % % % . * C , ",
"% % % % % % % % % % % % % % % % % % % % % % % % % % % % . | X *.",
"% % % % % % % % % % % % % % % % % % % % % % % % % % % % . S < - ",
"% % % % % % % % % % % % % % % % % % % % % % % % % % % % . 0 K 1 ",
"% % % % % % % % % % % % % % % % % % % % % % % % % % % % . S 4 ; ",
"% % % % % % % % % % % % % % % % % % % % % % % % % % % % . l V > ",
"% % % % % % % % % % % % % % % % % % % % % % % % % % % % . Q + *.",
"% % % % % % % % % % % % % % % % % % % % % % % % % % % % . I 0 *.",
"% % % % % % % % % % % % % % % % % % % % % % % % % % % % . ) t *.",
"% % % % % % % % % % % % % % % % % % % % % % % % % % % % . E t *.",
"% % % % % % % % % % % % % % % % % % % % % % % % % % % % . L 0 *.",
"% % % % % % % % % % % % % % % % % % % % % % % % % % % % . X.k *.",
"% % % % % % % % % % % % % % % % % % % % % % % % % % % % . &.M *.",
"% % % % % % % % % % % % % % % % % % % % % % % % % % % % . o.d *.",
"% % % % % % % % % % % % % % % % % % % % % % % % % % % % . I 4 *.",
"% % % % % % % % % % % % % % % % % % % % % % % % % % % % . ^ c *.",
"% % % % % % % % % % % % % % % % % % % % % % % % % % % % . @.n *.",
"% % % % % % % % % % % % % % % % % % % % % % % % % % % % . %.n *.",
"% % % % % % % % % % % % % % % % % % % % % % % % % % % % . | a *.",
"% % % % % % % % % % % % % % % % % % % % % % % % % % % % . ! t *.",
"% % % % % % % % % % % % % % % % % % % % % % % % % % % % . I 4 *.",
"% % % % % % % % % % % % % % % % % % % % % % % % % % % % . ) i *.",
"% % % % % % % % % % % % % % % % % % % % % % % % % % % % . Q j *.",
"% % % % % % % % % % % % % % % % % % % % % % % % % % % % . X.& *.",
"% % % % % % % % % % % % % % % % % % % % % % % % % % % % . c V > ",
"% % % % % % % % % % % % % % % % % % % % % % % % % % % % . Z 4 ; ",
"% % % % % % % % % % % % % % % % % % % % % % % % % % % % . j K 1 ",
". . . . . . . . . . . . . . . . . . . . . . . . . . . .   G < - ",
"*.+ ` F d F t Y E ^ | Y ` I R X.%.` [ | ) O.%.@.~ a B d N K + *.",
", C * < K 4 V O 8 4 t 0 c t 7 d d 0 d l b d b n + V 4 K < X C , ",
"= , *.- 2 : > *.*.*.*.*.*.*.*.*.*.*.*.*.*.*.*.*.*.> : 2 - *., = "
};
