/* XPM */
static char *result[] = {
/* columns rows colors chars-per-pixel */
"32 32 7 1 ",
"  c #33323D",
". c #944B4B",
"X c #AE7764",
"o c #7B7BAB",
"O c #94A2BD",
"+ c white",
"@ c None",
/* pixels */
"@@@@@@@@@@@@@@@@@@@@@@@@@@@@@@@@",
"@@@@@@@@@@@@@@@@@@@@@@@@@@@@@@@@",
"@@@@@@@@@@@@@@@@@@@@@@@@@@@@@@@@",
"@@@@@@@@@@@@@@@@@@@@@@@@@@@@@@@@",
"@@@@@@@@@@@@@@@@@@@@@@@@@@@@@@@@",
"@@@@@@@@@@@@@@@@@@@@@@@@@@@@@@@@",
"@@@@@@@@@@@@     @@@@@@@@@@@@@@@",
"@@@@@@@@@@@ OOOOO @@@@@@@@@@@@@@",
"@@@@@@@@@@@OOO++Oo @@@@@@@@@@@@@",
"@@@@@@@@@@OOOOOO+o @@@@@@@@@@@@@",
"@@@@@@@@@@O@@+++OO @@@@@@@@@@@@@",
"@@@@@@@@@O@@@@O++o @@@@@@@@@@@@@",
"@@@@@@@@@@@@@OOO+O @@@@@@@@@@@@@",
"@@@@@@@@@@@@OOOOOO @@@@@@@@@@@@@",
"@@@@@@@@@@@OOOOOOo @@@@@@@@@@@@@",
"@@@@@@@@@@@@@@OOOo @@@@@@@@@@@@@",
"@@@@@@@@@@@@@@ OOo @@@@@@@@@@@@@",
"@@@@@@@@@@@@@@ OOo @@@@@@@@@@@@@",
"@@@@@@@@@@@@@@@ o @@@@@@@@@@@@@@",
"@@@@@@@@@@@@@@     @@@.@@@@@@@@@",
"@@@@@@@@@@@@@ X.X......@@@@@@@@@",
"@@@@@@@@@@@@@       ..@@@@@@@@@@",
"@@@@@@@@@@@@@@@   ....@@@@@@@@@@",
"@@@@@@@@@@@@@@@ X... @@@@@@@@@@@",
"@@@@@@@@@@@@@@@@    @@@@@@@@@@@@",
"@@@@@@@@@@@@@@@@@@@@@@@@@@@@@@@@",
"@@@@@@@@@@@@@@@@@@@@@@@@@@@@@@@@",
"@@@@@@@@@@@@@@@@@@@@@@@@@@@@@@@@",
"@@@@@@@@@@@@@@@@@@@@@@@@@@@@@@@@",
"@@@@@@@@@@@@@@@@@@@@@@@@@@@@@@@@",
"@@@@@@@@@@@@@@@@@@@@@@@@@@@@@@@@",
"@@@@@@@@@@@@@@@@@@@@@@@@@@@@@@@@"
};
