/* XPM */
static const char *sprite_062[] = {
/* columns rows colors chars-per-pixel */
"32 32 6 1 ",
"  c #333C24",
". c #586335",
"X c #7F8E44",
"o c #ADB834",
"O c #2789CD",
"+ c #42BFE8",
/* pixels */
"++++++++++++++O oXXXXXXXXXXXXXXX",
"++++++++++++++ .XXXXXXXXXXXXXXXX",
"++++++++++++++O .XXXXXXXXXXXXXXX",
"++++++++++++++O XXXXXXXXXXXXXXXX",
"++++++++++++++ .oXXXXXXXXXXXXXXX",
"++++++++++++++ .oXXXXXXXXXXXXXXX",
"++++++++++++++O XXXXXXXXXXXXXXXX",
"+++++++++++++++ .XXXXXXXXXXXXXXX",
"+++++++++++++++O XXXXXXXXXXXXXXX",
"+++++++++++++++O .XXXXXXXXXXXXXX",
"+++++++++++++++ .XXXXXXXXXXXXXXX",
"++++++++++++++ .XXXXXXXXXXXXXXXX",
"++++++++++++++O oXXXXXXXXXXXXXXX",
"+++++++++++++++ .XXXXXXXXXXXXXXX",
"+++++++++++++++O XXXXXXXXXXXXXXX",
"+++++++++++++++O XXXXXXXXXXXXXXX",
"+++++++++++++++ oXXXXXXXXXXXXXXX",
"+++++++++++++++O XXXXXXXXXXXXXXX",
"+++++++++++++++O XXXXXXXXXXXXXXX",
"+++++++++++++++ oXXXXXXXXXXXXXXX",
"++++++++++++++ .oXXXXXXXXXXXXXXX",
"++++++++++++++O XXXXXXXXXXXXXXXX",
"+++++++++++++++ .XXXXXXXXXXXXXXX",
"+++++++++++++++O XXXXXXXXXXXXXXX",
"+++++++++++++++O .XXXXXXXXXXXXXX",
"+++++++++++++++ .XXXXXXXXXXXXXXX",
"+++++++++++++++ oXXXXXXXXXXXXXXX",
"+++++++++++++++O .XXXXXXXXXXXXXX",
"+++++++++++++++ .XXXXXXXXXXXXXXX",
"++++++++++++++ .XXXXXXXXXXXXXXXX",
"++++++++++++++O oXXXXXXXXXXXXXXX",
"+++++++++++++++ .XXXXXXXXXXXXXXX"
};
