/* XPM */
static const char *sprite_00[] = {
/* columns rows colors chars-per-pixel */
"32 32 8 1 ",
"  c black",
". c #0D0707",
"X c #100E0D",
"o c #611F1F",
"O c #967A5D",
"+ c #EEE0C4",
"@ c #FFF5CB",
"# c None",
/* pixels */
"################################",
"################################",
"################################",
"################################",
"################################",
"################################",
"################################",
"################################",
"################################",
"################################",
"################################",
"################################",
"################################",
"################################",
"############        ############",
"########### OOOO++++ ###########",
"########### OO++++XX+ ##########",
"########### OO+++XooX ##########",
"########### OO++XXXXo ##########",
"########### OO+++XXXo ##########",
"########### OO+   XX  ##########",
"########### OO o@o@o@ ##########",
"########### O o @.@.@ ##########",
"########### O o ..... ##########",
"############ O o .... ##########",
"###########    o@.@.@  #########",
"########## ++ + ooooo + ########",
"########## ++ ++++++ ++ ########",
"###########   ++++++   #########",
"########### O+    O+ ###########",
"########### O ### O ############",
"###########  ####  #############"
};
