/* XPM */
static const char *sprite_19[] = {
/* columns rows colors chars-per-pixel */
"32 32 3 1 ",
"  c #20E8E1",
". c white",
"X c None",
/* pixels */
"XXXXXXXXXXXXXXXXXXXXXXXXXXXXXXXX",
"XXXXXXXXXXXXXXXXXXXXXXXXXXXXXXXX",
"XXXXXXXXXXXXXXXXXXXXXXXXXXXXXXXX",
"XXXXXXXXXXXXXXXXXXXXXXXXXXXXXXXX",
"XXXXXXXXXXXXXXXXXXXXXXXXXXXXXXXX",
"XXXXXXXXXXXXXXXXXXXXXXXXXXXXXXXX",
"XXXXXXXXXXXXXX. XXXXXXXXXXXXXXXX",
"XXXXXXXXXXXXXX...XXXXXXXXXXXXXXX",
"XXXXXXXXXXXXXX.. XXXXXXXXXXXXXXX",
"XXXXXXX .. XXXXXX..XXXXXXXXXXXXX",
"XXXXXXX....XXXXXX..XXXXXXXXXXXXX",
"XXXXXXX....XXXXXXXXXX .. XXXXXXX",
"XXXXXXX .. XXXXXXXXXX....XXXXXXX",
"XXXXXXXXXXXXXX..XXXXX....XXXXXXX",
"XXXXXXXXXXXXXX..XXXXX .. XXXXXXX",
"XXXXXXXXXXXXXXXXXXXXXXXXXXXXXXXX",
"XXXXXXXXXXXXXXXXXXXX XXXXXXXXXXX",
"XXXXXXXXXXXXXXXXXXX   XXXXXXXXXX",
"XXXXXXXXXXXXXX..XXXX XXXXXXXXXXX",
"XXXXXXXXXXXXXX..XXXXXXXXXXXXXXXX",
"XXXXXXXXXXXXXXXXXXXXXXXXXXXXXXXX",
"XXXXXXXXXXXXXXX XXXXXXXXXXXXXXXX",
"XXXXXXX . XXXX . XX . XXXXXXXXXX",
"XXXXXXX... XXXX XXX....XXXXXXXXX",
"XXXXXXXX .XXXXXXXXX .. XXXXXXXXX",
"XXXXXXXXXXXXXXXXXXXX. XXXXXXXXXX",
"XXXXXXXXXXXXXXXXXXXXXXXXXXXXXXXX",
"XXXXXXXXXXXXXXXXXXXXXXXXXXXXXXXX",
"XXXXXXXXXXXXXXXXXXXXXXXXXXXXXXXX",
"XXXXXXXXXXXXXXXXXXXXXXXXXXXXXXXX",
"XXXXXXXXXXXXXXXXXXXXXXXXXXXXXXXX",
"XXXXXXXXXXXXXXXXXXXXXXXXXXXXXXXX"
};
