/* XPM */
static const char *sprite_13[] = {
/* columns rows colors chars-per-pixel */
"32 32 8 1 ",
"  c black",
". c #0D0707",
"X c #100E0D",
"o c #611F1F",
"O c #967A5D",
"+ c #EEE0C4",
"@ c #FFF5CB",
"# c None",
/* pixels */
"################################",
"################################",
"################################",
"################################",
"################################",
"################################",
"################################",
"################################",
"################################",
"################################",
"################################",
"################################",
"################################",
"################   #############",
"############    +++ ############",
"########### OO+++XX ############",
"########### O+++Xooo ###########",
"########### O+++XXXo ###########",
"########### OO++XXXo ###########",
"########### OO++ XXX ###########",
"########### OO+ @o@o@ ##########",
"############ O o@.@.. ##########",
"############ O o..... ##########",
"############ O o .... ##########",
"############# O o@.@oo #########",
"###########   O   oo   #########",
"########## ++ +OOO  O + ########",
"########## ++ ++++OO ++ ########",
"###########   ++++++   #########",
"########### O+    O+ ###########",
"########### O ### O ############",
"###########  ####  #############"
};
