/* XPM */
static const char *sprite_07[] = {
/* columns rows colors chars-per-pixel */
"32 32 9 1 ",
"  c black",
". c #0D0707",
"X c #100E0D",
"o c #611F1F",
"O c #967A5D",
"+ c #C5BD98",
"@ c #EEE0C4",
"# c #FFF5CB",
"$ c None",
/* pixels */
"$$$$$$$$$$$$$$$$$$$$$$$$$$$$$$$$",
"$$$$$$$$$$$$$$$$$$$$$$$$$$$$$$$$",
"$$$$$$$$$$$$$$$$$$$$$$$$$$$$$$$$",
"$$$$$$$$$$$$$$$$$$$$$$$$$$$$$$$$",
"$$$$$$$$$$$$$$$$$$$$$$$$$$$$$$$$",
"$$$$$$$$$$$$$$$$$$$$$$$$$$$$$$$$",
"$$$$$$$$$$$$$$$$$$$$$$$$$$$$$$$$",
"$$$$$$$$$$$$$$$$$$$$$$$$$$$$$$$$",
"$$$$$$$$$$$$$$$$$$$$$$$$$$$$$$$$",
"$$$$$$$$$$$$$$$$$$$$$$$$$$$$$$$$",
"$$$$$$$$$$$$$$$$$$$$$$$$$$$$$$$$",
"$$$$$$$$$$$$$$$$$$$$$$$$$$$$$$$$",
"$$$$$$$$$$$$$$$$$$$$$$$$$$$$$$$$",
"$$$$$$$$$$$$$$$$$$$$$$$$$$$$$$$$",
"$$$$$$$$$$$$$$$$$$$$$$$$$$$$$$$$",
"$$$$$$$$$$$$$$$$$$$$$$$$$$$$$$$$",
"$$$$$$$$$$$$$        $$$$$$$$$$$",
"$$$$$$$$$$$$ OOOO@@@@ $$$$$$$$$$",
"$$$$$$$$$$$$ OO@@@@XX@ $$$$$$$$$",
"$$$$$$$$$$$$ OO@@@XooX $$$$$$$$$",
"$$$$$$$$$$$$ OO@@XXXXo $$$$$$$$$",
"$$$$$$$$$$$$ OO@@@XXXo $$$$$$$$$",
"$$$$$$$$$$$$ OO@@@@XX@ $$$$$$$$$",
"$$$$$$$$$$$$ OO@       $$$$$$$$$",
"$$$$$$$$$$$$ OO oooooo $$$$$$$$$",
"$$$$$$$$$$$$$  oo#.#.# $$$$$$$$$",
"$$$$$$$$$$$$$   o+.+.+ $$$$$$$$$",
"$$$$$$$$$$$  O  o#.#.# $$$$$$$$$",
"$$$$$$$$$$ @@ @@ ooooo $$$$$$$$$",
"$$$$$$$$$$ @@ @@@@@@@ $$$$$$$$$$",
"$$$$$$$$$$$     O@   $$$$$$$$$$$",
"$$$$$$$$$$$$$$$   $$$$$$$$$$$$$$"
};
