/* XPM */
static const char *sprite_17[] = {
/* columns rows colors chars-per-pixel */
"32 32 3 1 ",
"  c #5FCDE4",
". c white",
"X c None",
/* pixels */
"XXXXXXXXXXXXXXXXXXXXXXXXXXXXXXXX",
"XXXXXXXXXXXXXXXXXXXXXXXXXXXXXXXX",
"XXXXXXXXXXXXXXXXXXXXXXXXXXXXXXXX",
"XXXXXXXXXXXXXXXXXXXXXXXXXXXXXXXX",
"XXXXXXXXXXXXXXXXXXXXXXXXXXXXXXXX",
"XXXXXXXXXXXXXXXXXXXXXXXXXXXXXXXX",
"XXXXXXXXXXXXXXXXXXXXXXXXXXXXXXXX",
"XXXXXXXXXXXXXXXXXXXXXXXXXXXXXXXX",
"XXXXXXXXXXXXXXX ..XXXXXXXXXXXXXX",
"XXXXXXXXXXXXX.......XXXXXXXXXXXX",
"XXXXXXXXXXXX....... .XXXXXXXXXXX",
"XXXXXXXXXXXX.........XXXXXXXXXXX",
"XXXXXXXX XX.......... XXXXXXXXXX",
"XXXXXXXXXXX...........XXXXXXXXXX",
"XXXXXXXXXXX ...     ..XXXXXXXXXX",
"XXXXXXXXXX.....     .. XXXXXXXXX",
"XXXXXXXXXX.....     .. XXXXXXXXX",
"XXXXXXXXXXX....     .XXXXXXXXXXX",
"XXXXXXXXXXXX.........XXXXXXXXXXX",
"XXXXXXXXXXXX..........XXXXXXXXXX",
"XXXXXXXXXXX........... XXXXXXXXX",
"XXXXXXXXXXX...........XXXXXXXXXX",
"XXXXXXXXXXX...........XXXXXXXXXX",
"XXXXXXXXXXX ..........XXXXXXXXXX",
"XXXXXXXXX XX.........XXXXXXXXXXX",
"XXXXXXXXXXXX......... XXXXXXXXXX",
"XXXXXXXXXXXXX.......XXXXXXXXXXXX",
"XXXXXXXXXXXXXXX...XXXXXXXXXXXXXX",
"XXXXXXXXXXXXXXXXXXXXXXXXXXXXXXXX",
"XXXXXXXXXXXXXXXXXXXXXXXXXXXXXXXX",
"XXXXXXXXXXXXXXXXXXXXXXXXXXXXXXXX",
"XXXXXXXXXXXXXXXXXXXXXXXXXXXXXXXX"
};
