/* XPM */
static const char *sprite_18[] = {
/* columns rows colors chars-per-pixel */
"32 32 3 1 ",
"  c #5FCDE4",
". c white",
"X c None",
/* pixels */
"XXXXXXXXXXXXXXXXXXXXXXXXXXXXXXXX",
"XXXXXXXXXXXXXXXXXXXXXXXXXXXXXXXX",
"XXXXXXXXXXXXXXXXXXXXXXXXXXXXXXXX",
"XXXXXXXXXXXXXXXXXXXXXXXXXXXXXXXX",
"XXXXXXXXXXXXXXXXXXXXXXXXXXXXXXXX",
"XXXXXXXXXXXXXXXXXXXXXXXXXXXXXXXX",
"XXXXXXXXXXXXXXXXXXXXXXXXXXXXXXXX",
"XXXXXXXXXXXXXXXXXXXXXXXXXXXXXXXX",
"XXXXXXXXXXXXXXXXXXXXXXXXXXXXXXXX",
"XXXXXXXXXXXXXXXXXXXXXXXXXXXXXXXX",
"XXXXXXXXXXXXXXXXXXXXXXXXXXXXXXXX",
"XXXXXXXXXXXXXXXXXXXXXXXXXXXXXXXX",
"XXXXXXXXXXXXXX    XXXXXXXXXXXXXX",
"XXXXXXXXXXXX .....  XXXXXXXXXXXX",
"XXXXXXXXXXX......... XXXXXXXXXXX",
"XXXXXXXXXX............XXXXXXXXXX",
"XXXXXXXXX..............XXXXXXXXX",
"XXXXXXXXX .............XXXXXXXXX",
"XXXXXXXX .............. XXXXXXXX",
"XXXXXXXX......       .. XXXXXXXX",
"XXXXXXXX............... XXXXXXXX",
"XXXXXXXX .............. XXXXXXXX",
"XXXXXXXXX..............XXXXXXXXX",
"XXXXXXXXX ............ XXXXXXXXX",
"XXXXXXXXXX............XXXXXXXXXX",
"XXXXXXXXXXX..........XXXXXXXXXXX",
"XXXXXXXXXXXX .......XXXXXXXXXXXX",
"XXXXXXXXXXXXXX .. XXXXXXXXXXXXXX",
"XXXXXXXXXXXXXXXXXXXXXXXXXXXXXXXX",
"XXXXXXXXXXXXXXXXXXXXXXXXXXXXXXXX",
"XXXXXXXXXXXXXXXXXXXXXXXXXXXXXXXX",
"XXXXXXXXXXXXXXXXXXXXXXXXXXXXXXXX"
};
