/* XPM */
static const char *sprite_16[] = {
/* columns rows colors chars-per-pixel */
"32 32 3 1 ",
"  c #5FCDE4",
". c white",
"X c None",
/* pixels */
"XXXXXXXXXXXXXXXXXXXXXXXXXXXXXXXX",
"XXXXXXXXXXXXXXXXXXXXXXXXXXXXXXXX",
"XXXXXXXXXXXXXXXXXXXXXXXXXXXXXXXX",
"XXXXXXXXXXXXXXXXXXXXXXXXXXXXXXXX",
"XXXXXXXXXXXXXXXXXXXXXXXXXXXXXXXX",
"XXXXXXXXXXXXXXXXXXXXXXXXXXXXXXXX",
"XXXXXXXXXXXXXXXXXXXXXXXXXXXXXXXX",
"XXXXXXXXXXXXXXXXXXXXXXXXXXXXXXXX",
"XXXXXXXXXXXXXXXXXXXXXXXXXXXXXXXX",
"XXXXXXXXXXXXXXXXXXXXXXXXXXXXXXXX",
"XXXXXXXXXXXXXXXXXXXXXXXXXXXXXXXX",
"XXXXXXXX. XXXXX...XXXXXXXXXXXXXX",
"XXXXXXXX .X....... XXXX. XXXXXXX",
"XXXXXXXXXX.........XXXX .XXXXXXX",
"XXXXXXXXXX ........ XXXXXXXXXXXX",
"XXXXXXXXXX..........XXXXXXXXXXXX",
"XXXXXXXXXX..........XXXXXXXXXXXX",
"XXXXXXXXXX..........XXXXXXXXXXXX",
"XXXXXXXXXX.......... XXXXXXXXXXX",
"XXXXXXXXXXX......... XXXXXXXXXXX",
"XXXXXXXXXXX ........ XX XXXXXXXX",
"XXXXXXXXXXX .........XXXXXXXXXXX",
"XXXXXXXXXXXX......... XXXXXXXXXX",
"XXXXXXXXXXXX........XXXXXXXXXXXX",
"XXXXXXXXXX ..........X..XXXXXXXX",
"XXXXXXXXXX .......... ..XXXXXXXX",
"XXXXXXXXXX .............XXXXXXXX",
"XXXXXXXXXX..... ..   ...X. XXXXX",
"XXXXXXX. XXXXXXXXXXXXXXXX .XXXXX",
"XXXXXXX .XXXXXXXXXXXXXXXXXXXXXXX",
"XXXXXXXXXXXXXXXXXXXXXXXXXXXXXXXX",
"XXXXXXXXXXXXXXXXXXXXXXXXXXXXXXXX"
};
