/* XPM */
static const char *sprite_05[] = {
/* columns rows colors chars-per-pixel */
"32 32 9 1 ",
"  c black",
". c #0D0707",
"X c #100E0D",
"o c #611F1F",
"O c #967A5D",
"+ c #C7AA84",
"@ c #EEE0C4",
"# c #FFF5CB",
"$ c None",
/* pixels */
"$$$$$$$$$$$$$$$$$$$$$$$$$$$$$$$$",
"$$$$$$$$$$$$$$$$$$$$$$$$$$$$$$$$",
"$$$$$$$$$$$$$$$$$$$$$$$$$$$$$$$$",
"$$$$$$$$$$$$$$$$$$$$$$$$$$$$$$$$",
"$$$$$$$$$$$$$$$$$$$$$$$$$$$$$$$$",
"$$$$$$$$$$$$$$$$$$$$$$$$$$$$$$$$",
"$$$$$$$$$$$$$$$$$$$$$$$$$$$$$$$$",
"$$$$$$$$$$$$$$$$$$$$$$$$$$$$$$$$",
"$$$$$$$$$$$$$$$$$$$$$$$$$$$$$$$$",
"$$$$$$$$$$$$$$$$$$$$$$$$$$$$$$$$",
"$$$$$$$$$$$$$$$$$$$$$$$$$$$$$$$$",
"$$$$$$$$$$$$$$$$$$$$$$$$$$$$$$$$",
"$$$$$$$$$$$$$$$$$$$$$$$$$$$$$$$$",
"$$$$$$$$$$$$$$$$$$$$$$$$$$$$$$$$",
"$$$$$$$$$$$$        $$$$$$$$$$$$",
"$$$$$$$$$$$ OOOO@@@@ $$$$$$$$$$$",
"$$$$$$$$$$$ OO@@@@XX@ $$$$$$$$$$",
"$$$$$$$$$$$ OO@@@XooX $$$$$$$$$$",
"$$$$$$$$$$$ OO@@XXXXo $$$$$$$$$$",
"$$$$$$$$$$$ OO@@@XXXo $$$$$$$$$$",
"$$$$$$$$$$$ OO@@@@XX@ $$$$$$$$$$",
"$$$$$$$$$$$ OO        $$$$$$$$$$",
"$$$$$$$$$$$ O  o#o+o# $$$$$$$$$$",
"$$$$$$$$$$$$ @@ #.#.# $$$$$$$$$$",
"$$$$$$$$$$$$ @@  .... $$$$$$$$$$",
"$$$$$$$$$$$ O  @#.#.# $$$$$$$$$$",
"$$$$$$$$$$$ O@@ ooooo $$$$$$$$$$",
"$$$$$$$$$$$ O@@@@@@@  $$$$$$$$$$",
"$$$$$$$$$$  O@      @ $$$$$$$$$$",
"$$$$$$$$$$ OO $$$$$ @ $$$$$$$$$$",
"$$$$$$$$$$$  $$$$$$$$$$$$$$$$$$$",
"$$$$$$$$$$$$$$$$$$$$$$$$$$$$$$$$"
};
