/* XPM */
static const char *sprite_10[] = {
/* columns rows colors chars-per-pixel */
"32 32 8 1 ",
"  c black",
". c #0D0707",
"X c #100E0D",
"o c #611F1F",
"O c #967A5D",
"+ c #EEE0C4",
"@ c #FFF5CB",
"# c None",
/* pixels */
"################################",
"################################",
"################################",
"################################",
"################################",
"################################",
"################################",
"################################",
"################################",
"################################",
"################################",
"################################",
"################################",
"################################",
"##############        ##########",
"############# OOOO++++ #########",
"############# OO++++XX+ ########",
"############# OO+++XooX ########",
"############# OO++XXXXo ########",
"############# OO+++XXXo ########",
"############# OO+   XX  ########",
"############# OO o@o@o@ ########",
"############# O o @.@.@ ########",
"#############   o .....#########",
"############ OO+ o ....#########",
"###########    O o@.@.@ ########",
"########## ++ O++ ooooo ########",
"########## ++ +++O   ++ ########",
"###########   ++++++   #########",
"########### O+    O+ ###########",
"########### O ### O ############",
"###########  ####  #############"
};
