/* XPM */
static const char *player_idle4[] = {
/* columns rows colors chars-per-pixel */
"32 32 11 1 ",
"  c #33323D",
". c #D06C63",
"X c #CD897C",
"o c #DE9970",
"O c #EED878",
"+ c #68538A",
"@ c #7B7BAB",
"# c #EEBC9D",
"$ c #EAC088",
"% c white",
"& c None",
/* pixels */
"&&&&&&&&&&&&&&&&&&&&&&&&&&&&&&&&",
"&&&&&&&&&&&&&&&&&&&&&&&&&&&&&&&&",
"&&&&&&&&&&&&&&&&&&&&&&&&&&&&&&&&",
"&&&&&&&&&&&&&&&&&&&&&&&&&&&&&&&&",
"&&&&&&&&&&&&          &&&&&&&&&&",
"&&&&&&&&&&& ++@@@@@@@@ &&&&&&&&&",
"&&&&&&&&&& ++@       @@ &&&&&&&&",
"&&&&&&&&&& ++ %%%%%%% @ &&&&&&&&",
"&&&&&&&&&& ++ %  %  % @ &&&&&&&&",
"&&&&&&&&&& ++ %  %  % @ &&&&&&&&",
"&&&&&&&&&& ++@ %%%%% @@ &&&&&&&&",
"&&&&&&&&&& ++@ %+%+% @@ &&&&&&&&",
"&&&&&&&&&& ++@@@@@@@@@@ &&&&&&&&",
"&&&&&   && ++@@@@@@@@@@ &&   &&&",
"&&&&& @@    +++@@@@@+@++  @@ &&&",
"&&&&& @ @@@@@@@@@@@@@@@@@@ @ &&&",
"&&&&& @@@                @@@ &&&",
"&&&&&&          .....       &&&&",
"&&&&&&&&& X %% .oooooo X &&&&&&&",
"&&&&&&&&& X    .oo$$oo # &&&&&&&",
"&&&&&&&&& X % % .oooo ## &&&&&&&",
"&&&&&&&&  XX   X     ### &&&&&&&",
"&&&&&&& .. XXXX########   &&&&&&",
"&&&&&& ooo.            . . &&&&&",
"&&&&&& ooo.............o . &&&&&",
"&&&&&&    ...ooo    oooo   &&&&&",
"&&&&&& ###      OOO%     X &&&&&",
"&&&&&&&   ++@@@+++++@@@@  &&&&&&",
"&&&&&&&&& ++@         @@ &&&&&&&",
"&&&&&&&&&  ++ &&&&&& +++ &&&&&&&",
"&&&&&&&&& XX &&&&&&& XX &&&&&&&&",
"&&&&&&&&&   &&&&&&&&   &&&&&&&&&"
};
