/* XPM */
static const char *player_idle2[] = {
/* columns rows colors chars-per-pixel */
"32 32 11 1 ",
"  c #33323D",
". c #D06C63",
"X c #CD897C",
"o c #DE9970",
"O c #EED878",
"+ c #68538A",
"@ c #7B7BAB",
"# c #EEBC9D",
"$ c #EAC088",
"% c white",
"& c None",
/* pixels */
"&&&&&&&&&&&&&&&&&&&&&&&&&&&&&&&&",
"&&&&&&&&&&&&&&&&&&&&&&&&&&&&&&&&",
"&&&&&&&&&&&&&&&&&&&&&&&&&&&&&&&&",
"&&&&&&&&&&&&&&&&&&&&&&&&&&&&&&&&",
"&&&&&&&&&&&&&&&&&&&&&&&&&&&&&&&&",
"&&&&&&&&&&&&&&&&&&&&&&&&&&&&&&&&",
"&&&&&&&&&&&&&&&&&&&&&&&&&&&&&&&&",
"&&&&&&&&&&&&          &&&&&&&&&&",
"&&&&&&&&&&& ++@@@@@@@@ &&&&&&&&&",
"&&&&&&&&&& ++@       @@ &&&&&&&&",
"&&&&&&&&&& ++ %%%%%%% @ &&&&&&&&",
"&&&&&&&&&& ++ %  %  % @ &&&&&&&&",
"&&&&&&&&&& ++ %  %  % @ &&&&&&&&",
"&&&&&&&&&& ++@ %%%%% @@ &&&&&&&&",
"&&&&&&&&&& ++@ %+%+% @@ &&&&&&&&",
"&&&&&   && ++@@@@@@@@@@ &&   &&&",
"&&&&& @@ & ++@@@@@@@@@@ & @@ &&&",
"&&&&& @     +++@@@@@+@++   @ &&&",
"&&&&& @@@@@@@@@@@@@@@@@@@@@@ &&&",
"&&&&&&                      &&&&",
"&&&&&&&&&   %% .......   &&&&&&&",
"&&&&&&&&& X    .oo$$oo X &&&&&&&",
"&&&&&&&&& X % % .oooo ## &&&&&&&",
"&&&&&&&&  XX   X     ### &&&&&&&",
"&&&&&&& .. XXXX########   &&&&&&",
"&&&&&& ooo.            . . &&&&&",
"&&&&&& ooo......    ...o . &&&&&",
"&&&&&&          OOO%       &&&&&",
"&&&&&& ###++@@@+++++@@@@ X &&&&&",
"&&&&&&&    ++         ++  &&&&&&",
"&&&&&&&&& XX &&&&&&& XX &&&&&&&&",
"&&&&&&&&&   &&&&&&&&   &&&&&&&&&"
};
