/* XPM */
static const char *sprite_00[] = {
/* columns rows colors chars-per-pixel */
"32 32 15 1 ",
"  c black",
". c #0E0E0E",
"X c #1C0A18",
"o c #1D1D1D",
"O c #1F1F38",
"+ c #2F2F2F",
"@ c #1A3473",
"# c #4E4E4E",
"$ c #7B7B7B",
"% c #EF7B55",
"& c #2EAFC7",
"* c #8A9DB8",
"= c #FFC68B",
"- c white",
"; c None",
/* pixels */
";;;;;;;;;;;;;;;;;;;;;;;;;;;;;;;;",
";;;;;;;;;;;;;;;;;;;;;;;;;;;;;;;;",
";;;;;;;;;;;;;;;;;;;;;;;;;;;;;;;;",
";;;;;;;;;;;;;;;;;;;;;;;;;;;;;;;;",
";;;;;;;;;;;;;;;;;;;;;;;;;;;;;;;;",
";;;;;;;;;;;;;;;;;;;;;;;;;;;;;;;;",
";;;;;;;;;;;;;...;;;;;;;;;;;;;;;;",
";;;;;;;;;;;;;;.+...;;;;;;;;;;;;;",
";;;;;;;;;;;...++++o.;;;;;;;;;;;;",
";;;;;;;;;;;;.+#+++#$.;;;;;;;;;;;",
";;;;;;;;;;;.o#$o++$#o.;;;;;;;;;;",
";;;;;;;;;;.+++o=ooo++.;;;;;;;;;;",
";;;;;;;;;;.++o  =  o+.;;;;;;;;;;",
";;;;;;;;;;;.+o*o=o*o+.;;;;;;;;;;",
";;;;;;;;;;;.+.-#=#-=.;;;;;;;;;;;",
";;;;;;;;;;;;.X=====.;;;;;;;;;;;;",
";;;;;;;;;;;;;;X%%%X;;;;;;;;;;;;;",
";;;;;;;;;;;;;X@&&&@X;;;;;;;;;;;;",
";;;;;;;;;;;;X&@&&&@&X;;;;;;;;;;;",
";;;;;;;;;;;X==@@@@@==X;;;;;;;;;;",
";;;;;;;;;;;X=%@@@@@%=X;;;;;;;;;;",
";;;;;;;;;;;;XXO@@@OXX;;;;;;;;;;;",
";;;;;;;;;;;;;X@@O@@X;;;;;;;;;;;;",
";;;;;;;;;;;;;X@@X@@X;;;;;;;;;;;;",
";;;;;;;;;;;;X==%X%==X;;;;;;;;;;;",
";;;;;;;;;;;;;XXX;XXX;;;;;;;;;;;;",
";;;;;;;;;;;;;;;;;;;;;;;;;;;;;;;;",
";;;;;;;;;;;;;;;;;;;;;;;;;;;;;;;;",
";;;;;;;;;;;;;;;;;;;;;;;;;;;;;;;;",
";;;;;;;;;;;;;;;;;;;;;;;;;;;;;;;;",
";;;;;;;;;;;;;;;;;;;;;;;;;;;;;;;;",
";;;;;;;;;;;;;;;;;;;;;;;;;;;;;;;;"
};
