/* XPM */
static const char *sprite_0[] = {
/* columns rows colors chars-per-pixel */
"32 32 11 1 ",
"  c gray8",
". c #10313F",
"X c #323131",
"o c #561C14",
"O c #7F6843",
"+ c #872E20",
"@ c #C93620",
"# c #806843",
"$ c #D2AA7B",
"% c #ECE2E2",
"& c None",
/* pixels */
"&&&&&&&&&&&&&&&&&&&&&&&&&&&&&&&&",
"&&&&&&&&&&&&&&%&%&&&&&&&&&&&&&&&",
"&&&&&&&&&&&&&%%%%%&%&&&&&&&&&&&&",
"&&&&&&&&&&&&&&%%%%%%&&&&&&&&&&&&",
"&&&&&&&&&&&&&&%  %%%&&&&&&&&&&&&",
"&&&&&&&&&&&&&% %%  %&&&&&&&&&&&&",
"&&&&&&&&&&&&& %%%%% %&&&&&&&&&&&",
"&&&&&&&&&&&&%%%%%%$%%&&&&&&&&&&&",
"&&&&&&&&&&&&%%%%$%$%&&&&&&&&&&&&",
"&&&&&&&&&&&&&%$%#$$%&&&&&&&&&&&&",
"&&&&&&&&&&&& X$$#$$ &&&&&&&&&&&&",
"&&&&&&&&&&&& X$$$$$X &&&&&&&&&&&",
"&&&&&&&&&&&    OOO   &&&&&&&&&&&",
"&&&&&&&&&&& +oo    oo+&&&&&&&&&&",
"&&&&&&&&&&&++oooooooo++&&&&&&&&&",
"&&&&&&&&&&&++oooooooo++&&&&&&&&&",
"&&&&&&&&&&&@+oooooooo@@&&&&&&&&&",
"&&&&&&&&&&&$@oooooooo$$&&&&&&&&&",
"&&&&&&&&&&&$$ooooooo&$$&&&&&&&&&",
"&&&&&&&&&&&$$ooooooo&$$&&&&&&&&&",
"&&&&&&&&&&&$$ooooooo&$$&&&&&&&&&",
"&&&&&&&&&&&$$ ooooo &$$&&&&&&&&&",
"&&&&&&&&&&&&$.     .&&$&&&&&&&&&",
"&&&&&&&&&&&&&........&&&&&&&&&&&",
"&&&&&&&&&&&&&........&&&&&&&&&&&",
"&&&&&&&&&&&&&........&&&&&&&&&&&",
"&&&&&&&&&&&&&   &....&&&&&&&&&&&",
"&&&&&&&&&&&&&&  &...&&&&&&&&&&&&",
"&&&&&&&&&&&&&&&&&...&&&&&&&&&&&&",
"&&&&&&&&&&&&&&&&&   &&&&&&&&&&&&",
"&&&&&&&&&&&&&&&&&   &&&&&&&&&&&&",
"&&&&&&&&&&&&&&&&&&&&&&&&&&&&&&&&"
};
