/* XPM */
static const char *sprite_000[] = {
/* columns rows colors chars-per-pixel */
"32 32 5 1 ",
"  c #333C24",
". c #586335",
"X c #7F8E44",
"o c #ADB834",
"O c None",
/* pixels */
"OOOOOOOOOOOOOOOOOOOOOOOOO       ",
"OOOOOOOOOOOOOOOOOOOO     . oXX .",
"OOOOOOOOOOOOOOOO    .ooXXXXXXXXX",
"OOOOOOOOOOOOO   o. XXXXXXXXXXXXX",
"OOOOOOOOOOO  ..XXXXXXXXXXXXXXXXX",
"OOOOOOOOO  o XXXXXXXXXXXXXXXXXXX",
"OOOOOOOO oXXXXXXXXXXXXXXXXXXXXXX",
"OOOOOOO .XXXXXXXXXXXXXXXXXXXXXXX",
"OOOOOO .XXXXXXXXXXXXXXXXXXXXXXXX",
"OOOOO oXXXXXXXXXXXXXXXXXXXXXXXXX",
"OOOOO XXXXXXXXXXXXXXXXXXXXXXXXXX",
"OOOO oXXXXXXXXXXXXXXXXXXXXXXXXXX",
"OOOO  XXXXXX.XXXXXXXXXXXXXXXXXXX",
"OOO .XXXXXX.o.XXXXXXXXXXXXXXXXXX",
"OOO .XXXXXXXXXXXXXXXXXXXXXXXXXXX",
"OOO XXXXXXXXXXXXXXXXXXXXXXXXXXXX",
"OO oXXXXXXXXXXXXXXXXXXXXXXXXXXXX",
"OO .XXXXXXXXXXXXXXXXXXXXXXXXX.XX",
"OO  XXXXXXXXXXXXXXXXXXXXXXXX.o.X",
"OO XXXXXXXXXXXXXXXXXXXXXXXXXXXXX",
"O .XXXXXXXXXXXXXXXXXXXXXXXXXXXXX",
"O oXXXXXXXXXXXXXXXXXXXXXXXXXXXXX",
"O oXXXXXXXXXXXXXXXXXXXXXXXXXXXXX",
"O XXXXXXXXXXXXXXXXXXXXXXXXXXXXXX",
"O XXXXXXXXXXXXXXXXXXXXXXXXXXXXXX",
" .XXXXXXXXXXXXXXXXXXXXXXXXXXXXXX",
"  XXXXXXXXXXXXXXXXXXXXXXXXXXXXXX",
" oXXXXXXXXXXXXXXXXXXXXXXXXXXXXXX",
" XXXXXXXXXXXXXXXXXXXXXXXXXXXXXXX",
" XXXXXXXXXXXXXXXXXXXXXXXXXXXXXXX",
"  XXXXXXXXXXXXXXXXXXXXXXXXXXXXXX",
" .XXXXXXXXXXXXXXXXXXXXXXXXXXXXXX"
};
