/* XPM */
static const char *sprite_203[] = {
/* columns rows colors chars-per-pixel */
"32 32 8 1 ",
"  c #4F342F",
". c #586335",
"X c #8C5B3E",
"o c #7F8E44",
"O c #ADB834",
"+ c #C68556",
"@ c #D6A851",
"# c None",
/* pixels */
"################################",
"################################",
"################################",
"################################",
"################################",
"################################",
"################################",
"################################",
"################################",
"#############      #############",
"###########  XXXXXX  ###########",
"########## X++++++++X ##########",
"######### X++@@@@@@++X #########",
"########  X+@@+@@+@@+X  #.######",
"####### + X+@@@++@@++X +.O.#####",
"#######.X X+@@+@@+@@+X X.#######",
"########. X++@@@@@@++X .########",
"######### XX++++++++XX #########",
"#######.#  XXXXXXXXXX  #########",
"######.O. X          X #########",
"#######o. +X XXXXX XX+ #########",
"########o +XXX+XXXXXX+ #.#######",
"######## +XX XXXXX+XXX+ O.######",
"######## XXXXX X.XXXXXX ########",
"####### +XXX.X XO.X XXX+ #######",
"###### +XXX.O...o....XXX+.######",
"######.XX..##########..X.O.#####",
"#####.O..##############.Oo######",
"################################",
"################################",
"################################",
"################################"
};
