/* XPM */
static const char *sprite_157[] = {
/* columns rows colors chars-per-pixel */
"32 32 4 1 ",
"  c #4F342F",
". c #8C5B3E",
"X c #C68556",
"o c None",
/* pixels */
"oooooooooooooooooooooooooooooooo",
"ooooooooooooooo........ooooooooo",
"ooooooooooooo  XXXXXXX.  ooooooo",
"oooooooooooo .XX......XX. oooooo",
"ooooooooooo .X..XXXX....X. ooooo",
"ooooooooooo X.XXXX..XXXX.X ooooo",
"oooooooooo .X.XXX.XXXXXX.X. oooo",
"oooooooooo .X.X..XXXXX...X. oooo",
"oooooooooo .X..XXX......... oooo",
"oooooooooo .X.XX  XXXXXXX.  oooo",
"oooooooooo  X.X .XX......XX. ooo",
"oooooooooo  .X .X..XXXX....X. oo",
"oooooooooo . . X.XXXX..XXXX.X oo",
"oooooooooo .. .X.XXX.XXXXXX.X. o",
"oooooooooo  . .X.X..XXXXX...X. o",
"oooooooooo .  .X..XXXXXX.XX.X. o",
"oooooooooo .. .X.XXXXXX.XXX.X. o",
"oooooooooo ..  X.XXXX..XXXX.X  o",
"oooooooooo  .  .X....XXXX..X.  o",
"oooooooooo .  . .XX......XX. . o",
"ooooooooooo . ..  .XXXXXX.  .. o",
"ooooooooooo .  ...        ...  o",
"oooooooooooo  . ............ . o",
"ooooooooooooo ..  ..XXXXX.  .. o",
"ooooooooooooo ....  ..... .... o",
"ooooooooooooo  .....XXXXX....  o",
"ooooooooooooo . ....XXXX.... . o",
"oooooooooooooo . ..XXXXXX.. . oo",
"oooooooooooooo ..  .XXXX.  .. oo",
"ooooooooooooooo ...      ... ooo",
"oooooooooooooooo  ........  oooo",
"oooooooooooooooooo        oooooo"
};
