/* XPM */
static const char *sprite_141[] = {
/* columns rows colors chars-per-pixel */
"32 32 2 1 ",
"  c #8C5B3E",
". c #C68556",
/* pixels */
"................................",
"................................",
"................................",
"                                ",
"                                ",
"                                ",
"                                ",
"                                ",
"                                ",
"                                ",
"................................",
"                                ",
"................................",
"................................",
"................................",
"................................",
"                                ",
"                                ",
"                                ",
"                                ",
"                                ",
"                                ",
"                                ",
"................................",
"................................",
"                                ",
"                                ",
"                                ",
"................................",
"................................",
"                                ",
"................................"
};
