/* XPM */
static const char *sprite_152[] = {
/* columns rows colors chars-per-pixel */
"32 32 8 1 ",
"  c #586335",
". c #594D4D",
"X c #886E6A",
"o c #7F8E44",
"O c #ADB834",
"+ c #BDA499",
"@ c #DDCEBF",
"# c None",
/* pixels */
"################################",
"################################",
"################################",
"################################",
"################################",
"################################",
"################################",
"################################",
"################################",
"################XXXXX###########",
"##############XX++@@@X##########",
"#############X+++++@@@X#########",
"############X++++++++@X#########",
"############X++++++++@@X########",
"###########X++++++++++@X## #####",
"###########X+++++++++++X# O ####",
"###########.++++X+++++++Xoo ####",
"###########.++++X+++++++X#######",
"###########.+++@.X++++++X#######",
"######## #.X++@@@.X++++++X######",
"####### O .X+++@@@.X++++X.# ####",
"####### oO.XX++++@.XX+X X. O ###",
"#########o.XX X+++X..X O  Oo ###",
"##########.X O X+XXX . o  o#####",
"######## ##. o XX XXO  oO#######",
"####### O ## oO  O .oo #########",
"########o ####o  o #############",
"################################",
"################################",
"################################",
"################################",
"################################"
};
