/* XPM */
static const char *sprite_178[] = {
/* columns rows colors chars-per-pixel */
"32 32 8 1 ",
"  c #4F342F",
". c #586335",
"X c #8C5B3E",
"o c #7F8E44",
"O c #ADB834",
"+ c #C68556",
"@ c #D6A851",
"# c None",
/* pixels */
"################################",
"################################",
"################################",
"################################",
"################################",
"################################",
"############       #############",
"##########  XXXXXXX  ###########",
"######### X+++++++++X ##########",
"######## X++@@@@@@@++X #########",
"######## X+@@+@@@+@@+X #########",
"#####.#  X++@@+++@@@+X  ########",
"####.O.+ X+@@@+++@@++X + #######",
"######.X X+@@+@@@+@@+X X.#######",
"#######. X++@@@@@@@++X .########",
"######## XX+++++++++XX #########",
"########  XXXXXXXXXXX  #########",
"######## X           X #.#######",
"######## +XX XX XXX X+ .O.######",
"######## +XX XXXXXX X+ .########",
"######.# +XXXXX X+XXX+ #########",
"#####.O +XXX+XXXXXX XX+ ########",
"####### XXXXXX.XX XXXXX ########",
"###### +XXX X.O.X X.XXX+ #######",
"#####.+XXX....oO...O.XXX+ ######",
"####.O.X..###########..XX.######",
"#####oO.###############..O.#####",
"################################",
"################################",
"################################",
"################################",
"################################"
};
